<?xml version="1.0" encoding="utf-8"?>
<!-- Generator: Adobe Illustrator 27.4.0, SVG Export Plug-In . SVG Version: 6.00 Build 0)  -->
<svg version="1.1" id="Layer_1" xmlns="http://www.w3.org/2000/svg" xmlns:xlink="http://www.w3.org/1999/xlink" x="0px" y="0px"
	 viewBox="0 0 342.2 480.9" style="enable-background:new 0 0 342.2 480.9;" xml:space="preserve">
<style type="text/css">
	.st0{fill:#398AAE;}
	.st1{clip-path:url(#SVGID_00000091007914046138342590000010706489247806706571_);fill:#398AAE;}
	.st2{fill:none;stroke:#FFFFFF;stroke-width:9;}
	.st3{font-family:'Avenir-Book';}
	.st4{font-size:101.9772px;}
	.st5{letter-spacing:16;}
	.st6{clip-path:url(#SVGID_00000137105131268625810390000012656555415187184780_);fill:#FFFFFF;}
</style>
<g>
	<rect x="171.5" y="45.7" class="st0" width="102.1" height="111.9"/>
	<rect x="171.5" y="196" class="st0" width="113.1" height="111.9"/>
	<g>
		<defs>
			<rect id="SVGID_1_" x="-956.5" y="-500.8" width="2246.1" height="1588.1"/>
		</defs>
		<clipPath id="SVGID_00000070091292456416348140000013635549254912789415_">
			<use xlink:href="#SVGID_1_"  style="overflow:visible;"/>
		</clipPath>
		<path style="clip-path:url(#SVGID_00000070091292456416348140000013635549254912789415_);fill:#398AAE;" d="M187.1,206.2h45
			c4.8,0,10,0.5,15.6,1.4c5.6,0.9,10.8,2.7,15.6,5.2c4.8,2.5,8.8,6.2,12,11.1c3.2,4.9,4.8,11.2,4.8,19.1c0,7.2-1.2,13.4-3.6,18.4
			c-2.4,5-5.5,9.1-9.4,12.3c-3.8,3.1-8.1,5.3-12.8,6.6c-4.7,1.3-9.3,1.9-13.9,1.9h-53.4V206.2z M187.1,72.9h40.5
			c4.6,0,9.3,0.6,14.1,1.6c4.8,1.1,9.2,2.9,13,5.4c3.8,2.5,6.9,6.1,9.3,10.6c2.4,4.6,3.6,10.3,3.6,17.2c0,6.6-1.1,12.3-3.2,17
			c-2.2,4.7-5,8.5-8.6,11.3c-3.6,2.8-7.6,4.9-12,6.1c-4.5,1.3-9,1.9-13.5,1.9h-43.1V72.9z M127.5,344.3h110.7c12,0,24-1.6,36.1-4.7
			c12.1-3.1,23-8.3,32.6-15.6c9.7-7.2,17.6-16.7,23.7-28.5c6.1-11.8,9.2-26.5,9.2-44.1c0-10.7-1.4-20.7-4.2-30.2
			c-2.8-9.4-6.8-17.7-12-24.7c-5.2-7.1-11.4-12.9-18.7-17.4c-7.3-4.6-15.3-7.6-24.2-9.2V169c14-5.3,25.2-14.2,33.8-26.6
			c8.5-12.4,12.8-28,12.8-46.9c0-18.2-2.9-32.8-8.8-43.8c-5.9-11-13.5-19.6-22.9-25.7c-9.4-6.1-20-10.2-31.9-12.3
			c-11.8-2-23.6-3.1-35.3-3.1H127.5V344.3z"/>
	</g>
	<rect x="16.1" y="9.6" class="st0" width="82.2" height="333.8"/>
	<line class="st2" x1="59.9" y1="174" x2="218.8" y2="256.3"/>
	<text transform="matrix(1 0 0 1 6.9063 467.8287)"><tspan x="0" y="0" class="st3 st4 st5">C</tspan><tspan x="88.6" y="0" class="st3 st4 st5">AR</tspan><tspan x="252.9" y="0" class="st3 st4">D</tspan></text>
	<line class="st2" x1="59.9" y1="190.5" x2="218.8" y2="97.3"/>
	<g>
		<defs>
			<rect id="SVGID_00000118398212357348337270000012944058630681651343_" x="-610.6" y="-343.9" width="1575.7" height="1114.2"/>
		</defs>
		<clipPath id="SVGID_00000139279448203138326420000009129380128600145833_">
			<use xlink:href="#SVGID_00000118398212357348337270000012944058630681651343_"  style="overflow:visible;"/>
		</clipPath>
		<path style="clip-path:url(#SVGID_00000139279448203138326420000009129380128600145833_);fill:#FFFFFF;" d="M220.5,297.3
			c23.5,0,42.6-19.1,42.6-42.6S244,212,220.5,212c-23.5,0-42.6,19.1-42.6,42.6S196.9,297.3,220.5,297.3"/>
		<path style="clip-path:url(#SVGID_00000139279448203138326420000009129380128600145833_);fill:#FFFFFF;" d="M58.7,219.8
			c23.5,0,42.6-19.1,42.6-42.6s-19.1-42.6-42.6-42.6c-23.5,0-42.6,19.1-42.6,42.6S35.2,219.8,58.7,219.8"/>
		<path style="clip-path:url(#SVGID_00000139279448203138326420000009129380128600145833_);fill:#FFFFFF;" d="M220.5,140.9
			c23.5,0,42.6-19.1,42.6-42.6S244,55.6,220.5,55.6c-23.5,0-42.6,19.1-42.6,42.6S196.9,140.9,220.5,140.9"/>
	</g>
</g>
</svg>
