<?xml version="1.0" encoding="utf-8"?>
<!-- Generator: Adobe Illustrator 27.4.0, SVG Export Plug-In . SVG Version: 6.00 Build 0)  -->
<svg version="1.1" id="Layer_1" xmlns="http://www.w3.org/2000/svg" xmlns:xlink="http://www.w3.org/1999/xlink" x="0px" y="0px"
	 viewBox="0 0 146 190" style="enable-background:new 0 0 146 190;" xml:space="preserve">
<style type="text/css">
	.st0{clip-path:url(#SVGID_FFFFFF7945552739611125501FFFFFF8866131186818114708_);}
	.st1{fill:none;stroke:#000000;stroke-width:5.148;}
	.st2{fill:#000000;}
	.st3{clip-path:url(#SVGID_00000129165000761749585110000015150668347217319055_);}
</style>
<rect x="78.7" y="37.2" width="32" height="35"/>
<rect x="78.7" y="84.2" width="35.4" height="35"/>
<g>
	<defs>
		<rect id="SVGID_1_" x="-341" y="-185.3" width="841.9" height="595.3"/>
	</defs>
	<clipPath id="SVGID_FFFFFF08107911984990064690000015623074463955616956_">
		<use xlink:href="#SVGID_1_"  style="overflow:visible;"/>
	</clipPath>
	<path style="clip-path:url(#SVGID_FFFFFF08107911984990064690000015623074463955616956_);" d="M83.6,87.5h14.1
		c1.5,0,3.1,0.1,4.9,0.4c1.8,0.3,3.4,0.8,4.9,1.6c1.5,0.8,2.8,1.9,3.8,3.5c1,1.5,1.5,3.5,1.5,6c0,2.3-0.4,4.2-1.1,5.8
		c-0.8,1.6-1.7,2.9-2.9,3.8c-1.2,1-2.5,1.7-4,2.1c-1.5,0.4-2.9,0.6-4.4,0.6H83.6V87.5z M83.6,45.7h12.7c1.4,0,2.9,0.2,4.4,0.5
		c1.5,0.3,2.9,0.9,4.1,1.7c1.2,0.8,2.2,1.9,2.9,3.3c0.8,1.4,1.1,3.2,1.1,5.4c0,2.1-0.3,3.8-1,5.3c-0.7,1.5-1.6,2.7-2.7,3.5
		c-1.1,0.9-2.4,1.5-3.8,1.9c-1.4,0.4-2.8,0.6-4.2,0.6H83.6V45.7z M65,130.7h34.7c3.7,0,7.5-0.5,11.3-1.5c3.8-1,7.2-2.6,10.2-4.9
		c3-2.3,5.5-5.2,7.4-8.9c1.9-3.7,2.9-8.3,2.9-13.8c0-3.3-0.4-6.5-1.3-9.4c-0.9-3-2.1-5.5-3.8-7.7c-1.6-2.2-3.6-4-5.9-5.5
		c-2.3-1.4-4.8-2.4-7.6-2.9v-0.3c4.4-1.7,7.9-4.4,10.6-8.3c2.7-3.9,4-8.8,4-14.7c0-5.7-0.9-10.3-2.7-13.7c-1.8-3.4-4.2-6.1-7.2-8
		c-2.9-1.9-6.3-3.2-10-3.8c-3.7-0.6-7.4-1-11.1-1H65V130.7z"/>
</g>
<rect x="30.1" y="25.9" width="25.7" height="104.5"/>
<line class="st1" x1="43.8" y1="77.4" x2="93.6" y2="103.2"/>
<g>
	<path d="M49.2,165.8c-0.4,0.6-0.9,1.1-1.4,1.6c-0.6,0.5-1.2,1-1.9,1.3c-0.7,0.4-1.5,0.7-2.3,0.9c-0.8,0.2-1.7,0.3-2.7,0.3
		c-1.7,0-3.2-0.3-4.7-0.9s-2.7-1.4-3.7-2.5c-1.1-1.1-1.9-2.3-2.5-3.8c-0.6-1.4-0.9-3-0.9-4.8c0-1.7,0.3-3.3,0.9-4.8
		c0.6-1.4,1.4-2.7,2.5-3.8c1.1-1.1,2.3-1.9,3.7-2.5c1.4-0.6,3-0.9,4.7-0.9c1.4,0,2.8,0.3,4.2,0.8c1.4,0.6,2.6,1.5,3.6,2.7l-2,1.5
		c-0.2-0.4-0.6-0.7-1-1.1c-0.4-0.4-0.9-0.7-1.4-1c-0.5-0.3-1.1-0.5-1.7-0.7c-0.6-0.2-1.2-0.3-1.8-0.3c-1.4,0-2.7,0.3-3.9,0.8
		c-1.1,0.5-2.1,1.2-2.9,2.1c-0.8,0.9-1.4,1.9-1.8,3.1c-0.4,1.2-0.6,2.4-0.6,3.7s0.2,2.5,0.6,3.7c0.4,1.2,1,2.2,1.8,3.1
		c0.8,0.9,1.8,1.6,2.9,2.1s2.4,0.8,3.9,0.8c0.6,0,1.2-0.1,1.8-0.2s1.2-0.3,1.7-0.5c0.6-0.3,1.1-0.6,1.6-1c0.5-0.4,1-1,1.4-1.6
		L49.2,165.8z"/>
	<path d="M58,169.4h-2.7l9.8-22.6h2.2l9.8,22.6h-2.7l-2.5-5.9H60.5L58,169.4z M61.3,161.3h9.8l-4.9-11.9L61.3,161.3z"/>
	<path d="M87.9,169.4h-2.3v-22.6h7c2.3,0,4.1,0.5,5.4,1.5c1.3,1,2,2.5,2,4.5c0,1.6-0.5,2.9-1.5,4c-1,1.1-2.4,1.7-4.3,1.9l6.5,10.7
		h-2.8l-6.2-10.5h-3.8V169.4z M87.9,156.8h4.1c1,0,1.9-0.1,2.6-0.3c0.7-0.2,1.3-0.5,1.7-0.8c0.4-0.4,0.7-0.8,0.9-1.2
		c0.2-0.5,0.3-1,0.3-1.5c0-0.5-0.1-1-0.3-1.5c-0.2-0.5-0.5-0.9-0.9-1.3s-1-0.6-1.7-0.8c-0.7-0.2-1.6-0.3-2.6-0.3h-4.1V156.8z"/>
	<path d="M109.5,146.8h7.5c1.4,0,2.8,0.2,4.2,0.7c1.4,0.5,2.7,1.2,3.8,2.1c1.1,0.9,2.1,2.1,2.8,3.5s1.1,3.1,1.1,4.9
		c0,1.9-0.4,3.5-1.1,4.9s-1.6,2.6-2.8,3.5c-1.1,0.9-2.4,1.7-3.8,2.1c-1.4,0.5-2.8,0.7-4.2,0.7h-7.5V146.8z M111.8,167.3h4.5
		c1.7,0,3.2-0.3,4.5-0.8s2.3-1.2,3.2-2.1c0.8-0.9,1.5-1.8,1.9-2.9c0.4-1.1,0.6-2.2,0.6-3.4s-0.2-2.3-0.6-3.4c-0.4-1.1-1-2.1-1.9-2.9
		s-1.9-1.6-3.2-2.1s-2.8-0.8-4.5-0.8h-4.5V167.3z"/>
</g>
<line class="st1" x1="43.8" y1="82.5" x2="93.6" y2="53.4"/>
<g>
	<path class="st2" d="M94.1,116c7.4,0,13.4-6,13.4-13.4c0-7.4-6-13.4-13.4-13.4c-7.4,0-13.4,6-13.4,13.4C80.7,110,86.7,116,94.1,116
		"/>
	<path class="st2" d="M43.4,91.7c7.4,0,13.4-6,13.4-13.4c0-7.4-6-13.4-13.4-13.4c-7.4,0-13.4,6-13.4,13.4
		C30.1,85.7,36,91.7,43.4,91.7"/>
	<path class="st2" d="M94.1,67c7.4,0,13.4-6,13.4-13.4c0-7.4-6-13.4-13.4-13.4c-7.4,0-13.4,6-13.4,13.4C80.7,61,86.7,67,94.1,67"/>
</g>
<g>
	<defs>
		<rect id="SVGID_FFFFFF2831514026378124924FFFFFF3462082189623532216_" x="-341" y="-185.3" width="841.9" height="595.3"/>
	</defs>
	<clipPath id="SVGID_FFFFFF881151031290094351FFFFFF16266132617522714260_">
		<use xlink:href="#SVGID_FFFFFF2831514026378124924FFFFFF3462082189623532216_"  style="overflow:visible;"/>
	</clipPath>
	<path style="clip-path:url(#SVGID_FFFFFF881151031290094351FFFFFF16266132617522714260_);" d="M400.2-134.3c0.2,0,0.3-0.1,0.4-0.2
		l0.5-0.8c0-0.1,0.1-0.1,0.1-0.2c0-0.1-0.1-0.1-0.2-0.1c-0.1,0-0.2,0-0.3,0.1l-0.6,0.7l-0.5-0.7c-0.1-0.1-0.2-0.1-0.3-0.1
		c-0.1,0-0.2,0-0.2,0.1c0,0,0,0.1,0.1,0.2l0.5,0.8c0.1,0.1,0.2,0.2,0.4,0.2H400.2z"/>
</g>
</svg>
