<svg width="143" height="32" viewBox="0 0 143 32" fill="none" xmlns="http://www.w3.org/2000/svg">
<g clip-path="url(#clip0_1_2111)">
<path d="M142.121 15.9753C142.121 20.8296 142.121 25.6889 142.121 30.5432C142.121 30.7506 142.121 30.9531 142.111 31.1605C142.096 31.4271 141.952 31.5753 141.68 31.5852C141.413 31.595 141.145 31.595 140.878 31.595C139.413 31.595 137.947 31.595 136.487 31.595C135.853 31.595 135.804 31.5506 135.814 30.9382C135.819 30.5728 135.898 30.2024 135.913 29.837C135.918 29.7086 135.838 29.5802 135.799 29.4469C135.675 29.4913 135.526 29.5111 135.422 29.5901C134.863 30.0049 134.348 30.4889 133.754 30.8494C132.091 31.8666 130.254 32.1876 128.343 31.8814C124.645 31.2889 122.081 29.195 120.64 25.7728C119.734 23.6247 119.526 21.3876 119.897 19.0666C120.179 17.3185 120.798 15.7333 121.853 14.3259C123.407 12.2469 125.447 10.9037 128.041 10.4839C130.709 10.0543 133.111 10.6123 135.155 12.4592C135.343 12.6271 135.601 12.716 135.823 12.8395C135.838 12.5876 135.868 12.3308 135.863 12.079C135.863 11.8321 135.809 11.5901 135.809 11.3432C135.809 7.92589 135.804 4.51355 135.809 1.09626C135.809 0.380216 135.833 0.350586 136.522 0.350586C138.15 0.350586 139.779 0.350586 141.408 0.350586C142.101 0.350586 142.126 0.375277 142.126 1.09626C142.126 6.05429 142.126 11.0123 142.126 15.9703L142.121 15.9753ZM125.665 21.116C125.487 24.4642 128.244 27.2 131.452 26.9135C133.091 26.7703 135.2 25.3629 135.799 23.7827C136.19 22.7506 136.388 21.6839 136.294 20.5827C136.14 18.7456 135.373 17.2296 133.804 16.1876C132.863 15.5654 131.804 15.358 130.685 15.4123C128.749 15.5061 127.338 16.4444 126.378 18.074C125.823 19.0123 125.6 20.0592 125.665 21.1061V21.116Z" fill="white"/>
<path d="M24.4095 15.9555C24.4095 11.1011 24.4095 6.24682 24.4095 1.3925C24.4095 1.22954 24.4046 1.06163 24.4095 0.898671C24.4294 0.424597 24.4789 0.3604 24.9492 0.355461C25.7512 0.340647 26.5581 0.355461 27.3601 0.355461C28.1621 0.355461 28.9691 0.350523 29.7711 0.355461C30.2859 0.3604 30.3602 0.419659 30.3503 0.923363C30.3404 1.4962 30.2463 2.06904 30.2414 2.64188C30.2315 5.89126 30.2364 9.14065 30.2364 12.395C30.2364 12.4542 30.2265 12.5234 30.2364 12.5777C30.2661 12.711 30.3107 12.8394 30.3503 12.9678C30.4691 12.9036 30.6127 12.8641 30.7067 12.7752C31.3305 12.1382 32.0236 11.59 32.8405 11.2197C34.9247 10.2616 37.0634 10.0888 39.2812 10.7456C40.8852 11.2197 42.2516 12.0542 43.4249 13.2147C44.7616 14.5382 45.623 16.1382 46.0537 17.9604C46.2814 18.9382 46.4992 19.9357 46.5488 20.9283C46.6082 22.2221 46.3062 23.4962 45.9596 24.7505C45.5091 26.3752 44.6527 27.7727 43.5289 28.9925C42.5239 30.0839 41.2615 30.8147 39.8902 31.3777C38.103 32.1085 36.2613 32.1826 34.4346 31.6937C33.0385 31.3234 31.7365 30.6764 30.7711 29.5209C30.6869 29.4221 30.5384 29.3777 30.4196 29.3085C30.3602 29.4468 30.2513 29.5851 30.2463 29.7234C30.2265 30.153 30.2414 30.5876 30.2612 31.0172C30.2859 31.5357 30.2612 31.59 29.7463 31.595C28.4245 31.6048 27.1076 31.595 25.7858 31.595C25.4789 31.595 25.167 31.59 24.8601 31.595C24.5482 31.595 24.4095 31.4419 24.4145 31.1406C24.4145 30.9579 24.4145 30.7703 24.4145 30.5876C24.4145 25.7135 24.4145 20.8345 24.4145 15.9604L24.4095 15.9555ZM35.1673 26.9283C35.5534 26.8937 35.9544 26.9086 36.3307 26.8197C38.6228 26.2863 39.9149 24.7357 40.4842 22.553C40.8506 21.1555 40.6575 19.7727 40.0387 18.4641C39.5535 17.4419 38.8852 16.5234 37.8455 16.0345C36.5336 15.4172 35.1574 15.1999 33.7019 15.6246C31.7167 16.2073 30.6473 17.6048 30.0681 19.4715C29.9493 19.8518 30.0038 20.2863 29.9543 20.6913C29.8107 21.8814 29.9344 23.0221 30.5582 24.074C31.5929 25.8172 33.0632 26.869 35.1623 26.9184L35.1673 26.9283Z" fill="white"/>
<path d="M97.7482 31.595C96.966 31.595 96.1838 31.595 95.3966 31.595C94.7481 31.595 94.7035 31.5456 94.7184 30.879C94.7283 30.5728 94.8075 30.2666 94.8124 29.9604C94.8124 29.7678 94.7481 29.5753 94.7085 29.3827C94.5402 29.4765 94.3372 29.5308 94.2085 29.6641C93.1292 30.7802 91.7926 31.4666 90.3024 31.7777C87.3766 32.3851 84.7577 31.6246 82.4408 29.7777C80.2774 28.0592 79.1932 25.7481 78.7526 23.0814C78.4754 21.3925 78.614 19.7382 78.9853 18.0691C79.416 16.1382 80.3418 14.4938 81.7329 13.1259C83.8121 11.0814 86.3617 10.1333 89.2628 10.3753C91.1242 10.5283 92.8223 11.2246 94.1788 12.5925C94.253 12.6666 94.3174 12.7506 94.4015 12.8049C94.4956 12.8691 94.6095 12.9086 94.7134 12.9629C94.753 12.8543 94.8273 12.7407 94.8223 12.637C94.7976 12.2469 94.7332 11.8617 94.7134 11.4765C94.6837 10.8493 94.7877 10.7308 95.3917 10.7259C96.9808 10.716 98.565 10.716 100.154 10.7259C100.674 10.7259 100.778 10.8246 100.773 11.3432C100.763 11.8765 100.669 12.4049 100.669 12.9382C100.659 18.5728 100.664 24.2074 100.669 29.8419C100.669 30.1876 100.714 30.5382 100.758 30.8839C100.827 31.4666 100.743 31.5901 100.159 31.595C99.3571 31.6049 98.5502 31.595 97.7482 31.595ZM89.9658 26.8987C90.9658 26.8987 91.4757 26.8049 92.4312 26.237C93.7183 25.4765 94.6491 24.4197 94.9412 22.8987C95.1194 21.9456 95.2382 20.9827 95.06 20.0296C94.9313 19.353 94.753 18.6518 94.4263 18.0543C93.6441 16.6271 92.4163 15.7283 90.7727 15.4962C89.0846 15.2543 87.4905 15.5308 86.2627 16.7901C84.6191 18.474 84.1092 20.4938 84.6835 22.8049C85.2973 25.279 87.7578 27.0666 89.9707 26.9037L89.9658 26.8987Z" fill="white"/>
<path d="M67.5939 31.9604C65.5196 32.0888 63.4404 31.358 61.5393 30.1925C59.5442 28.9678 58.0986 27.2148 57.3263 24.9629C56.8758 23.6543 56.5738 22.3209 56.5837 20.9234C56.5936 19.4518 57.0194 18.079 57.5541 16.7456C58.3957 14.6469 59.9056 13.1012 61.8264 11.9506C64.0394 10.6222 66.485 10.1333 69.0098 10.395C71.2425 10.6222 73.3317 11.3629 75.0842 12.8938C75.906 13.6098 76.5397 14.4493 77.1783 15.3037C77.4655 15.6938 77.3863 15.758 76.9358 16.0148C75.6486 16.7456 74.3812 17.5061 73.1188 18.2864C72.7475 18.5185 72.7376 18.5432 72.4703 18.1925C72.1584 17.7876 71.8317 17.3975 71.5 17.0074C70.6732 16.0395 69.5346 15.7876 68.3464 15.674C67.4108 15.5901 66.4899 15.6987 65.6186 16.0691C65.282 16.2123 64.8463 16.3012 64.8364 16.8197C64.8364 16.874 64.683 16.9777 64.6186 16.9678C64.1186 16.8839 63.9156 17.279 63.7077 17.5753C63.0394 18.5333 62.5393 19.5802 62.4552 20.7555C62.3611 22.1086 62.8067 23.3333 63.5493 24.4691C64.9305 26.5876 68.2128 27.2148 70.2277 26.1481C70.995 25.7382 71.7822 25.3728 72.1782 24.5234C72.2871 24.2864 72.4554 24.074 72.599 23.8469C72.7871 23.5456 73.0099 23.6444 73.1139 23.8765C73.2673 24.2172 73.5545 24.3407 73.8416 24.5036C74.9159 25.1111 75.9803 25.7382 77.0546 26.3456C77.317 26.4938 77.3467 26.6469 77.1981 26.8888C76.1041 28.6666 74.6535 30.0444 72.703 30.8641C72.4554 30.9678 72.2129 31.0765 71.9703 31.1901C70.6534 31.7975 69.2524 31.9753 67.5989 31.9555L67.5939 31.9604Z" fill="white"/>
<path d="M7.59235 21.1358C7.59235 24.3654 7.59235 27.595 7.59235 30.8247C7.59235 31.5802 7.5775 31.595 6.83986 31.595C5.33487 31.595 3.82988 31.595 2.32489 31.595C1.68625 31.595 1.6417 31.5506 1.6417 30.9432C1.6417 25.8814 1.63675 20.8247 1.64665 15.7629C1.64665 15.0469 1.74566 14.3308 1.74566 13.6148C1.74566 12.9185 1.65655 12.2222 1.6417 11.5259C1.6219 10.8 1.69121 10.7358 2.39915 10.7308C3.88433 10.7259 5.36952 10.7308 6.85471 10.7308C7.58245 10.7308 7.59235 10.7407 7.59235 11.516C7.59235 14.7259 7.59235 17.9308 7.59235 21.1407V21.1358Z" fill="white"/>
<path d="M104.857 21.1654C104.857 17.995 104.857 14.8296 104.857 11.6592C104.857 11.516 104.857 11.3728 104.857 11.2296C104.857 10.9037 105.021 10.7358 105.352 10.7308C105.659 10.7308 105.971 10.7308 106.278 10.7308C107.555 10.7308 108.838 10.7259 110.115 10.7308C110.714 10.7308 110.808 10.8148 110.793 11.4123C110.768 12.9135 110.689 14.4098 110.684 15.9111C110.669 20.4148 110.674 24.9234 110.684 29.4271C110.684 29.9407 110.778 30.4494 110.788 30.9629C110.798 31.4864 110.694 31.5901 110.184 31.595C108.615 31.6049 107.05 31.6049 105.481 31.595C104.922 31.595 104.852 31.5012 104.852 30.8592C104.852 27.8123 104.852 24.7703 104.852 21.7234C104.852 21.5407 104.852 21.3531 104.852 21.1703L104.857 21.1654Z" fill="white"/>
<path d="M119.105 14.2715C119.288 16.6468 117.323 17.9308 115.462 17.995C114.397 18.0345 113.447 17.595 112.679 16.8493C111.689 15.8913 111.754 15.7777 111.645 14.2073C111.486 12.0394 113.412 10.4592 115.417 10.4542C117.214 10.4542 119.328 11.8913 119.105 14.2666V14.2715Z" fill="white"/>
<path d="M16.0728 23.0814C14.7311 23.0814 13.3945 23.0814 12.0528 23.0814C11.4687 23.0814 11.4241 23.032 11.4192 22.4395C11.4142 21.2691 11.4093 20.0938 11.4192 18.9234C11.4192 18.3555 11.434 18.3654 12.0231 18.3703C14.6618 18.3753 17.3005 18.3703 19.9342 18.3703C19.9937 18.3703 20.058 18.3703 20.1174 18.3703C20.7263 18.316 20.7214 18.3555 20.6818 18.9827C20.6323 19.8172 20.5976 20.6666 20.6818 21.4913C20.8452 22.9876 20.8056 23.0814 19.3352 23.0814C18.2411 23.0814 17.152 23.0814 16.0579 23.0814H16.0728Z" fill="white"/>
<path d="M4.61167 7.03746C3.51758 7.00783 2.64132 6.53375 1.95319 5.69919C1.73041 5.42758 1.55714 5.12141 1.31951 4.86462C0.79969 4.29672 0.87395 3.59548 0.898703 2.92882C0.908604 2.67696 1.2403 2.44486 1.40367 2.19301C1.78486 1.60536 2.16606 1.03252 2.76509 0.617704C3.89878 -0.167481 5.1909 -0.211925 6.35429 0.518939C7.40383 1.17079 8.0276 2.09425 8.16127 3.314C8.25038 4.12388 7.97315 4.87943 7.50284 5.51153C6.83945 6.40042 5.93349 7.06709 4.61167 7.03746Z" fill="white"/>
</g>
<defs>
<clipPath id="clip0_1_2111">
<rect width="141.241" height="32" fill="white" transform="translate(0.879272)"/>
</clipPath>
</defs>
</svg>
